<?xml version="1.0" encoding="UTF-8"?>
<svg xmlns="http://www.w3.org/2000/svg" width="512" height="512" viewBox="0 0 128 128"><g><path d="M88.269,85.783,76.841,84.344a1.235,1.235,0,0,1-1.1-1.223c.008-1.374.01-3.14.01-4.918a24.347,24.347,0,0,0,11.7-15.017,7.742,7.742,0,0,0,.8-15.229V33.214A13.442,13.442,0,0,0,75.682,9.569a16.429,16.429,0,0,0-6.825-4.086l-.105-.032q-.661-.2-1.344-.338c-.087-.019-.174-.039-.262-.056-.412-.079-.831-.14-1.253-.188-.11-.012-.218-.031-.328-.042C65.048,4.779,64.527,4.75,64,4.75s-1.049.029-1.565.077c-.11.011-.218.03-.327.042-.423.048-.842.109-1.255.188-.087.017-.173.037-.26.056q-.684.141-1.345.338l-.106.032A16.423,16.423,0,0,0,52.318,9.57,13.442,13.442,0,0,0,39.75,33.214V47.957a7.742,7.742,0,0,0,.8,15.229A24.344,24.344,0,0,0,52.25,78.2c0,1.777,0,3.542.01,4.907a1.238,1.238,0,0,1-1.1,1.234L39.732,85.783a19.786,19.786,0,0,0-17.292,19.6V121.5a1.75,1.75,0,0,0,1.75,1.75h79.62a1.75,1.75,0,0,0,1.75-1.75V105.38A19.786,19.786,0,0,0,88.269,85.783ZM43.25,42.083h41.5v2.5H43.25ZM90.75,55.5a4.21,4.21,0,0,1-2.619,3.893c.077-.788.119-1.586.119-2.393V51.637A4.248,4.248,0,0,1,90.75,55.5ZM37.15,21.953A9.888,9.888,0,0,1,50,12.464,16.617,16.617,0,0,0,47.9,17.5a1.75,1.75,0,1,0,3.408.8,13.011,13.011,0,0,1,2.7-5.392c.02-.021.047-.032.066-.054A13.036,13.036,0,0,1,61.1,8.582l.2-.043c.358-.076.72-.133,1.085-.179.1-.012.2-.028.3-.038a12.164,12.164,0,0,1,2.643,0c.1.01.2.026.294.038.366.046.73.1,1.089.18l.192.041a13.037,13.037,0,0,1,7.03,4.269c.019.023.047.034.068.056a13.006,13.006,0,0,1,2.7,5.39,1.752,1.752,0,0,0,1.7,1.351,1.784,1.784,0,0,0,.4-.046,1.752,1.752,0,0,0,1.3-2.1A16.594,16.594,0,0,0,78,12.464a9.933,9.933,0,0,1,7.662,18.222,1.751,1.751,0,0,0-.912,1.537v6.36H43.25v-6.36a1.751,1.751,0,0,0-.912-1.537A9.945,9.945,0,0,1,37.15,21.953Zm.1,33.547a4.248,4.248,0,0,1,2.5-3.862V57c0,.8.041,1.6.118,2.382A4.231,4.231,0,0,1,37.25,55.5Zm6,1.5V48.083h41.5V57a20.75,20.75,0,0,1-41.5,0ZM64,81.25A24.132,24.132,0,0,0,72.249,79.8c0,1.2,0,2.35-.009,3.307a4.711,4.711,0,0,0,1.363,3.3L64,90.779l-9.6-4.373A4.727,4.727,0,0,0,55.76,83.1c-.006-.951-.008-2.1-.009-3.3A24.132,24.132,0,0,0,64,81.25ZM25.94,105.38A16.28,16.28,0,0,1,40.169,89.256L49.6,88.068,59.776,92.7,56.793,94.06a7.766,7.766,0,0,0-4.539,7.053V119.75H25.94Zm76.12,14.37H55.754V101.113a4.258,4.258,0,0,1,2.489-3.868L78.4,88.068l9.432,1.188A16.28,16.28,0,0,1,102.06,105.38Z"/><path d="M33.7,94.57a13.781,13.781,0,0,0-3.39,3.9,1.749,1.749,0,0,0,.63,2.393,1.727,1.727,0,0,0,.88.239,1.748,1.748,0,0,0,1.513-.869,10.335,10.335,0,0,1,2.533-2.911A1.75,1.75,0,1,0,33.7,94.57Z"/><path d="M64,100.417a1.75,1.75,0,0,0-1.75,1.75v2a1.75,1.75,0,0,0,3.5,0v-2A1.75,1.75,0,0,0,64,100.417Z"/><path d="M64,110.417a1.75,1.75,0,0,0-1.75,1.75v2a1.75,1.75,0,0,0,3.5,0v-2A1.75,1.75,0,0,0,64,110.417Z"/></g></svg>
